# xmcd
#
# Track frame offsets:
#	150
#	17310
#	36722
#	55497
#	71961
#	86154
#	106588
#	122826
#	141786
#	160728
#	179901
#	197291
#	217191
#	236051
#
# Disc length: 3274 seconds
#
# Revision: 9
# Processed by: cddbd v1.5.2PL0 Copyright (c) Steve Scherf et al.
# Submitted via: Jack! The Knife 20 Magnifico
#
DISCID=d10cc80e
DTITLE=Nek - In Due
DYEAR=1998
DGENRE=Pop
TTITLE0=Se io non avessi te
TTITLE1=Sto con te
TTITLE2=Noi due
TTITLE3=Se una regola c'è
TTITLE4=Ho in testa te
TTITLE5=Giusto o no
TTITLE6=Con un ma e con un se
TTITLE7=Basta uno sguardo
TTITLE8=Se vuoi, se puoi
TTITLE9=C'è tutto un mondo
TTITLE10=Una dose di te
TTITLE11=Le vibrazioni di una donna
TTITLE12=Nemmeno un secondo
TTITLE13="... Non sei mai lontano"
EXTD=Rolando D'Angeli
EXTT0=Nek, Varini
EXTT1=Nek, Varini
EXTT2=Nek, Varini
EXTT3=Nek, Varini
EXTT4=Nek, Varini
EXTT5=Nek, Varini
EXTT6=Nek, Varini
EXTT7=Nek, Varini
EXTT8=Nek, Varini
EXTT9=Nek, Varini
EXTT10=Nek, Varini
EXTT11=Nek, Varini
EXTT12=Nek, Varini
EXTT13=Nek, Varini
PLAYORDER=
